<?xml version="1.0" encoding="utf-8"?>
<!-- Generator: Adobe Illustrator 22.1.0, SVG Export Plug-In . SVG Version: 6.00 Build 0)  -->
<svg version="1.1" id="Capa_1" xmlns="http://www.w3.org/2000/svg" xmlns:xlink="http://www.w3.org/1999/xlink" x="0px" y="0px"
	 viewBox="0 0 57 51.1" style="enable-background:new 0 0 57 51.1;" xml:space="preserve">
<style type="text/css">
	.st0{fill:#E79DAB;}
</style>
<g>
	<g>
		<path class="st0" d="M56.1,41.1L34.3,3.4C33.1,1.3,30.9,0,28.5,0c-2.4,0-4.6,1.3-5.8,3.4L0.9,41.1c-1.2,2.1-1.2,4.6,0,6.7
			s3.4,3.4,5.8,3.4h43.6c2.4,0,4.6-1.3,5.8-3.4C57.3,45.7,57.3,43.2,56.1,41.1z M53.2,46.1c-0.6,1.1-1.7,1.7-2.9,1.7H6.7
			c-1.2,0-2.3-0.6-2.9-1.7c-0.6-1.1-0.6-2.3,0-3.4L25.6,5c0.6-1.1,1.7-1.7,2.9-1.7c1.2,0,2.3,0.6,2.9,1.7l21.8,37.7
			C53.8,43.8,53.8,45.1,53.2,46.1z"/>
	</g>
</g>
<g>
	<g>
		<rect x="26.8" y="16.7" class="st0" width="3.3" height="16.7"/>
	</g>
</g>
<g>
	<g>
		<path class="st0" d="M28.5,36.7c-1.2,0-2.2,1-2.2,2.2c0,1.2,1,2.2,2.2,2.2c1.2,0,2.2-1,2.2-2.2C30.7,37.7,29.7,36.7,28.5,36.7z"/>
	</g>
</g>
</svg>
